<?xml version="1.0" encoding="UTF-8" standalone="no"?>
<!DOCTYPE svg PUBLIC "-//W3C//DTD SVG 1.1//EN"
 "http://www.w3.org/Graphics/SVG/1.1/DTD/svg11.dtd">
<!-- Generated by graphviz version 2.36.0 (20140111.2315)
 -->
<!-- Title: unix Pages: 1 -->
<svg width="864pt" height="275pt"
 viewBox="0.00 0.00 864.00 274.67" xmlns="http://www.w3.org/2000/svg" xmlns:xlink="http://www.w3.org/1999/xlink">
<g id="graph0" class="graph" transform="scale(0.666667 0.666667) rotate(0) translate(4 408)">
<title>unix</title>
<polygon fill="white" stroke="none" points="-4,4 -4,-408 1292,-408 1292,4 -4,4"/>
<!-- Speaker Equippable Mic -->
<g id="node1" class="node"><title>Speaker Equippable Mic</title>
<ellipse fill="#b2dfee" stroke="#b2dfee" cx="219" cy="-378" rx="219.366" ry="25.4118"/>
<text text-anchor="middle" x="219" y="-372" font-family="noto" font-size="25.00">Speaker Equippable Mic</text>
</g>
<!-- Mic Base Station -->
<g id="node2" class="node"><title>Mic Base Station</title>
<ellipse fill="#b2dfee" stroke="#b2dfee" cx="219" cy="-290" rx="155.906" ry="25.4118"/>
<text text-anchor="middle" x="219" y="-284" font-family="noto" font-size="25.00">Mic Base Station</text>
</g>
<!-- Speaker Equippable Mic&#45;&gt;Mic Base Station -->
<g id="edge1" class="edge"><title>Speaker Equippable Mic&#45;&gt;Mic Base Station</title>
<path fill="none" stroke="black" d="M219,-352.125C219,-343.853 219,-334.486 219,-325.614"/>
<polygon fill="black" stroke="black" points="222.5,-325.522 219,-315.522 215.5,-325.522 222.5,-325.522"/>
</g>
<!-- Lecture Mixer Device + RTMP Stream Publisher -->
<g id="node3" class="node"><title>Lecture Mixer Device + RTMP Stream Publisher</title>
<ellipse fill="#b2dfee" stroke="#b2dfee" cx="620" cy="-202" rx="420.593" ry="25.4118"/>
<text text-anchor="middle" x="620" y="-196" font-family="noto" font-size="25.00">Lecture Mixer Device + RTMP Stream Publisher</text>
</g>
<!-- Mic Base Station&#45;&gt;Lecture Mixer Device + RTMP Stream Publisher -->
<g id="edge2" class="edge"><title>Mic Base Station&#45;&gt;Lecture Mixer Device + RTMP Stream Publisher</title>
<path fill="none" stroke="black" d="M310.746,-269.324C366.81,-257.3 439.141,-241.788 499.753,-228.789"/>
<polygon fill="black" stroke="black" points="500.718,-232.161 509.762,-226.642 499.25,-225.317 500.718,-232.161"/>
</g>
<!-- Projector -->
<g id="node6" class="node"><title>Projector</title>
<ellipse fill="#b2dfee" stroke="#b2dfee" cx="439" cy="-114" rx="89.1432" ry="25.4118"/>
<text text-anchor="middle" x="439" y="-108" font-family="noto" font-size="25.00">Projector</text>
</g>
<!-- Lecture Mixer Device + RTMP Stream Publisher&#45;&gt;Projector -->
<g id="edge5" class="edge"><title>Lecture Mixer Device + RTMP Stream Publisher&#45;&gt;Projector</title>
<path fill="none" stroke="black" d="M568.617,-176.586C544.904,-165.319 516.755,-151.944 492.758,-140.542"/>
<polygon fill="black" stroke="black" points="493.975,-137.246 483.441,-136.115 490.971,-143.568 493.975,-137.246"/>
</g>
<!-- RTMP Service (e.g. Youtube) -->
<g id="node7" class="node"><title>RTMP Service (e.g. Youtube)</title>
<ellipse fill="#b2dfee" stroke="#b2dfee" cx="802" cy="-114" rx="255.459" ry="25.4118"/>
<text text-anchor="middle" x="802" y="-108" font-family="noto" font-size="25.00">RTMP Service (e.g. Youtube)</text>
</g>
<!-- Lecture Mixer Device + RTMP Stream Publisher&#45;&gt;RTMP Service (e.g. Youtube) -->
<g id="edge6" class="edge"><title>Lecture Mixer Device + RTMP Stream Publisher&#45;&gt;RTMP Service (e.g. Youtube)</title>
<path fill="none" stroke="black" d="M671.667,-176.586C693.558,-166.242 719.209,-154.121 741.937,-143.381"/>
<polygon fill="black" stroke="black" points="743.602,-146.466 751.148,-139.029 740.611,-140.137 743.602,-146.466"/>
</g>
<!-- Ceiling Mounted Camera -->
<g id="node4" class="node"><title>Ceiling Mounted Camera</title>
<ellipse fill="#b2dfee" stroke="#b2dfee" cx="620" cy="-290" rx="225.912" ry="25.4118"/>
<text text-anchor="middle" x="620" y="-284" font-family="noto" font-size="25.00">Ceiling Mounted Camera</text>
</g>
<!-- Ceiling Mounted Camera&#45;&gt;Lecture Mixer Device + RTMP Stream Publisher -->
<g id="edge3" class="edge"><title>Ceiling Mounted Camera&#45;&gt;Lecture Mixer Device + RTMP Stream Publisher</title>
<path fill="none" stroke="black" d="M620,-264.125C620,-255.853 620,-246.486 620,-237.614"/>
<polygon fill="black" stroke="black" points="623.5,-237.522 620,-227.522 616.5,-237.522 623.5,-237.522"/>
</g>
<!-- HDMI out from A/V Box -->
<g id="node5" class="node"><title>HDMI out from A/V Box</title>
<ellipse fill="#b2dfee" stroke="#b2dfee" cx="1076" cy="-290" rx="212.198" ry="25.4118"/>
<text text-anchor="middle" x="1076" y="-284" font-family="noto" font-size="25.00">HDMI out from A/V Box</text>
</g>
<!-- HDMI out from A/V Box&#45;&gt;Lecture Mixer Device + RTMP Stream Publisher -->
<g id="edge4" class="edge"><title>HDMI out from A/V Box&#45;&gt;Lecture Mixer Device + RTMP Stream Publisher</title>
<path fill="none" stroke="black" d="M965.906,-268.237C902.1,-256.203 821.297,-240.964 753.837,-228.241"/>
<polygon fill="black" stroke="black" points="754.459,-224.797 743.984,-226.383 753.162,-231.676 754.459,-224.797"/>
</g>
<!-- noisebridge.net/ -->
<g id="node8" class="node"><title>noisebridge.net/</title>
<ellipse fill="#b2dfee" stroke="#b2dfee" cx="597" cy="-26" rx="154.224" ry="25.4118"/>
<text text-anchor="middle" x="597" y="-20" font-family="noto" font-size="25.00">noisebridge.net/</text>
</g>
<!-- RTMP Service (e.g. Youtube)&#45;&gt;noisebridge.net/ -->
<g id="edge7" class="edge"><title>RTMP Service (e.g. Youtube)&#45;&gt;noisebridge.net/</title>
<path fill="none" stroke="black" d="M745.168,-89.1584C718.987,-78.1751 687.81,-65.0957 660.823,-53.7747"/>
<polygon fill="black" stroke="black" points="662.043,-50.491 651.468,-49.8499 659.335,-56.946 662.043,-50.491"/>
</g>
<!-- noisebridge.net/moodle?? -->
<g id="node9" class="node"><title>noisebridge.net/moodle??</title>
<ellipse fill="#b2dfee" stroke="#b2dfee" cx="1007" cy="-26" rx="237.382" ry="25.4118"/>
<text text-anchor="middle" x="1007" y="-20" font-family="noto" font-size="25.00">noisebridge.net/moodle??</text>
</g>
<!-- RTMP Service (e.g. Youtube)&#45;&gt;noisebridge.net/moodle?? -->
<g id="edge8" class="edge"><title>RTMP Service (e.g. Youtube)&#45;&gt;noisebridge.net/moodle??</title>
<path fill="none" stroke="black" d="M858.832,-89.1584C884.265,-78.4887 914.414,-65.8409 940.855,-54.7486"/>
<polygon fill="black" stroke="black" points="942.546,-57.8349 950.413,-50.7389 939.838,-51.3799 942.546,-57.8349"/>
</g>
</g>
</svg>
