<?xml version="1.0" encoding="UTF-8" standalone="no"?>
<!DOCTYPE svg PUBLIC "-//W3C//DTD SVG 1.1//EN"
 "http://www.w3.org/Graphics/SVG/1.1/DTD/svg11.dtd">
<!-- Generated by graphviz version 2.36.0 (20140111.2315)
 -->
<!-- Title: unix Pages: 1 -->
<svg width="864pt" height="102pt"
 viewBox="0.00 0.00 864.00 102.41" xmlns="http://www.w3.org/2000/svg" xmlns:xlink="http://www.w3.org/1999/xlink">
<g id="graph0" class="graph" transform="scale(0.395423 0.395423) rotate(0) translate(4 255)">
<title>unix</title>
<polygon fill="white" stroke="none" points="-4,4 -4,-255 2181,-255 2181,4 -4,4"/>
<text text-anchor="middle" x="1088.5" y="-235.8" font-family="Times,serif" font-size="14.00">Cheapest way to increment the streaming value of a lecture point at NB</text>
<!-- Micro Usb + iPhone 5v charging cords -->
<g id="node1" class="node"><title>Micro Usb + iPhone 5v charging cords</title>
<ellipse fill="#b2dfee" stroke="#b2dfee" cx="375" cy="-202" rx="342.36" ry="25.4118"/>
<text text-anchor="middle" x="375" y="-196" font-family="noto" font-size="25.00">Micro Usb + iPhone 5v charging cords</text>
</g>
<!-- Ceiling/ Wall mounted smartphone mount -->
<g id="node2" class="node"><title>Ceiling/ Wall mounted smartphone mount</title>
<ellipse fill="#b2dfee" stroke="#b2dfee" cx="375" cy="-114" rx="375.211" ry="25.4118"/>
<text text-anchor="middle" x="375" y="-108" font-family="noto" font-size="25.00">Ceiling/ Wall mounted smartphone mount</text>
</g>
<!-- Micro Usb + iPhone 5v charging cords&#45;&gt;Ceiling/ Wall mounted smartphone mount -->
<g id="edge1" class="edge"><title>Micro Usb + iPhone 5v charging cords&#45;&gt;Ceiling/ Wall mounted smartphone mount</title>
<path fill="none" stroke="black" d="M375,-176.125C375,-167.853 375,-158.486 375,-149.614"/>
<polygon fill="black" stroke="black" points="378.5,-149.522 375,-139.522 371.5,-149.522 378.5,-149.522"/>
</g>
<!-- Presenter&#39;s smartphone -->
<g id="node3" class="node"><title>Presenter&#39;s smartphone</title>
<ellipse fill="#b2dfee" stroke="#b2dfee" cx="375" cy="-26" rx="219.366" ry="25.4118"/>
<text text-anchor="middle" x="375" y="-20" font-family="noto" font-size="25.00">Presenter&#39;s smartphone</text>
</g>
<!-- Ceiling/ Wall mounted smartphone mount&#45;&gt;Presenter&#39;s smartphone -->
<g id="edge2" class="edge"><title>Ceiling/ Wall mounted smartphone mount&#45;&gt;Presenter&#39;s smartphone</title>
<path fill="none" stroke="black" d="M375,-88.1252C375,-79.8532 375,-70.4857 375,-61.6138"/>
<polygon fill="black" stroke="black" points="378.5,-61.5218 375,-51.5219 371.5,-61.5219 378.5,-61.5218"/>
</g>
<!-- A table for a Laptop -->
<g id="node4" class="node"><title>A table for a Laptop</title>
<ellipse fill="#b2dfee" stroke="#b2dfee" cx="942" cy="-202" rx="183.272" ry="25.4118"/>
<text text-anchor="middle" x="942" y="-196" font-family="noto" font-size="25.00">A table for a Laptop</text>
</g>
<!-- Presenter&#39;s Laptop -->
<g id="node5" class="node"><title>Presenter&#39;s Laptop</title>
<ellipse fill="#b2dfee" stroke="#b2dfee" cx="942" cy="-114" rx="173.423" ry="25.4118"/>
<text text-anchor="middle" x="942" y="-108" font-family="noto" font-size="25.00">Presenter&#39;s Laptop</text>
</g>
<!-- A table for a Laptop&#45;&gt;Presenter&#39;s Laptop -->
<g id="edge3" class="edge"><title>A table for a Laptop&#45;&gt;Presenter&#39;s Laptop</title>
<path fill="none" stroke="black" d="M942,-176.125C942,-167.853 942,-158.486 942,-149.614"/>
<polygon fill="black" stroke="black" points="945.5,-149.522 942,-139.522 938.5,-149.522 945.5,-149.522"/>
</g>
<!-- A/V Box -->
<g id="node6" class="node"><title>A/V Box</title>
<ellipse fill="#b2dfee" stroke="#b2dfee" cx="803" cy="-26" rx="79.3553" ry="25.4118"/>
<text text-anchor="middle" x="803" y="-20" font-family="noto" font-size="25.00">A/V Box</text>
</g>
<!-- Presenter&#39;s Laptop&#45;&gt;A/V Box -->
<g id="edge4" class="edge"><title>Presenter&#39;s Laptop&#45;&gt;A/V Box</title>
<path fill="none" stroke="black" d="M903.281,-89.0442C885.884,-78.2809 865.263,-65.5227 847.258,-54.3827"/>
<polygon fill="black" stroke="black" points="849,-51.345 838.655,-49.0599 845.317,-57.2978 849,-51.345"/>
</g>
<!-- Mic -->
<g id="node7" class="node"><title>Mic</title>
<ellipse fill="#b2dfee" stroke="#b2dfee" cx="942" cy="-26" rx="41.0183" ry="25.4118"/>
<text text-anchor="middle" x="942" y="-20" font-family="noto" font-size="25.00">Mic</text>
</g>
<!-- Presenter&#39;s Laptop&#45;&gt;Mic -->
<g id="edge5" class="edge"><title>Presenter&#39;s Laptop&#45;&gt;Mic</title>
<path fill="none" stroke="black" d="M942,-88.1252C942,-79.8532 942,-70.4857 942,-61.6138"/>
<polygon fill="black" stroke="black" points="945.5,-61.5218 942,-51.5219 938.5,-61.5219 945.5,-61.5218"/>
</g>
<!-- Screen Recorder -->
<g id="node8" class="node"><title>Screen Recorder</title>
<ellipse fill="#b2dfee" stroke="#b2dfee" cx="1157" cy="-26" rx="155.345" ry="25.4118"/>
<text text-anchor="middle" x="1157" y="-20" font-family="noto" font-size="25.00">Screen Recorder</text>
</g>
<!-- Presenter&#39;s Laptop&#45;&gt;Screen Recorder -->
<g id="edge6" class="edge"><title>Presenter&#39;s Laptop&#45;&gt;Screen Recorder</title>
<path fill="none" stroke="black" d="M999.616,-89.9536C1027.55,-78.7783 1061.27,-65.2926 1090.31,-53.6743"/>
<polygon fill="black" stroke="black" points="1091.99,-56.7755 1099.97,-49.8118 1089.39,-50.2761 1091.99,-56.7755"/>
</g>
<!-- Post Production Work to Join Cam to screencast and Audio -->
<g id="node9" class="node"><title>Post Production Work to Join Cam to screencast and Audio</title>
<ellipse fill="#b2dfee" stroke="#b2dfee" cx="1661" cy="-202" rx="516.343" ry="25.4118"/>
<text text-anchor="middle" x="1661" y="-196" font-family="noto" font-size="25.00">Post Production Work to Join Cam to screencast and Audio</text>
</g>
<!-- .mp4 -->
<g id="node10" class="node"><title>.mp4</title>
<ellipse fill="#b2dfee" stroke="#b2dfee" cx="1661" cy="-114" rx="56.3526" ry="25.4118"/>
<text text-anchor="middle" x="1661" y="-108" font-family="noto" font-size="25.00">.mp4</text>
</g>
<!-- Post Production Work to Join Cam to screencast and Audio&#45;&gt;.mp4 -->
<g id="edge7" class="edge"><title>Post Production Work to Join Cam to screencast and Audio&#45;&gt;.mp4</title>
<path fill="none" stroke="black" d="M1661,-176.125C1661,-167.853 1661,-158.486 1661,-149.614"/>
<polygon fill="black" stroke="black" points="1664.5,-149.522 1661,-139.522 1657.5,-149.522 1664.5,-149.522"/>
</g>
</g>
</svg>
